<?xml version="1.0" standalone="no"?>
<!DOCTYPE svg PUBLIC "-//W3C//DTD SVG 20010904//EN"
 "http://www.w3.org/TR/2001/REC-SVG-20010904/DTD/svg10.dtd">
<svg version="1.0" xmlns="http://www.w3.org/2000/svg"
 width="500.000000pt" height="500.000000pt" viewBox="0 0 500.000000 500.000000"
 preserveAspectRatio="xMidYMid meet">
<metadata>
Created by potrace 1.14, written by Peter Selinger 2001-2017
</metadata>
<g transform="translate(0.000000,500.000000) scale(0.100000,-0.100000)"
fill="#000000" stroke="none">
<path d="M444 4835 c-98 -31 -179 -91 -230 -171 -68 -107 -64 41 -64 -2164 0
-2209 -4 -2047 65 -2155 42 -66 95 -111 175 -149 l65 -31 2040 0 2040 0 55 25
c64 28 61 26 123 81 31 28 60 67 85 117 l37 76 0 2040 0 2041 -31 66 c-53 112
-124 175 -246 220 -51 18 -103 19 -2063 18 -1609 -1 -2018 -4 -2051 -14z"/>
</g>
</svg>
